<svg width="86" height="86" viewBox="0 0 86 86" fill="none" xmlns="http://www.w3.org/2000/svg">
<g clip-path="url(#clip0_22_26)">
<g clip-path="url(#clip1_22_26)">
<path d="M44.14 41.4C49.3876 41.0536 54.3072 38.7247 57.9013 34.8855C61.4954 31.0463 63.4952 25.984 63.4952 20.725C63.4952 15.466 61.4954 10.4037 57.9013 6.56451C54.3072 2.7253 49.3876 0.396417 44.14 0.0500031V41.4Z" fill="black"/>
<path d="M41.31 19.31V0H23.31C22.9598 0.0128772 22.628 0.160465 22.384 0.411985C22.1399 0.663504 22.0023 0.999536 22 1.35V19.35L41.31 19.31Z" fill="black"/>
<path d="M44.14 43.81V63.08H63.42C63.0806 58.0794 60.9401 53.3713 57.395 49.8281C53.85 46.2849 49.1408 44.1468 44.14 43.81Z" fill="black"/>
<path d="M41.31 22.14H22V63.09H41.31V22.14Z" fill="black"/>
<path d="M44.14 65.91H22V83.91C22 84.269 22.1419 84.6134 22.3948 84.8681C22.6477 85.1229 22.991 85.2674 23.35 85.27H42.75C48.0082 85.2663 53.0686 83.2645 56.9064 79.6699C60.7441 76.0754 63.0725 71.1568 63.42 65.91H44.14Z" fill="black"/>
</g>
</g>
<defs>
<clipPath id="clip0_22_26">
<rect width="85.23" height="85.23" fill="white"/>
</clipPath>
<clipPath id="clip1_22_26">
<rect width="41.47" height="85.23" fill="white" transform="translate(22)"/>
</clipPath>
</defs>
</svg>
